<?xml version="1.0" encoding="UTF-8" standalone="no"?><svg xmlns="http://www.w3.org/2000/svg" xmlns:xlink="http://www.w3.org/1999/xlink" contentScriptType="application/ecmascript" contentStyleType="text/css" height="436px" preserveAspectRatio="none" style="width:1101px;height:436px;" version="1.1" viewBox="0 0 1101 436" width="1101px" zoomAndPan="magnify"><defs><filter height="300%" id="fyjhw1oytq0za" width="300%" x="-1" y="-1"><feGaussianBlur result="blurOut" stdDeviation="2.0"/><feColorMatrix in="blurOut" result="blurOut2" type="matrix" values="0 0 0 0 0 0 0 0 0 0 0 0 0 0 0 0 0 0 .4 0"/><feOffset dx="4.0" dy="4.0" in="blurOut2" result="blurOut3"/><feBlend in="SourceGraphic" in2="blurOut3" mode="normal"/></filter></defs><g><text fill="#000000" font-family="sans-serif" font-size="18" lengthAdjust="spacingAndGlyphs" textLength="101" x="511" y="16.708">State Chart</text><!--cluster LightSwitch--><rect fill="#FEFECE" filter="url(#fyjhw1oytq0za)" height="381" rx="12.5" ry="12.5" style="stroke: #A80036; stroke-width: 1.5;" width="1067" x="22" y="44.9531"/><rect fill="#FFFFFF" height="348.7031" rx="12.5" ry="12.5" style="stroke: #FFFFFF; stroke-width: 1.0;" width="1061" x="25" y="74.25"/><line style="stroke: #A80036; stroke-width: 1.5;" x1="22" x2="1089" y1="71.25" y2="71.25"/><text fill="#000000" font-family="sans-serif" font-size="14" lengthAdjust="spacingAndGlyphs" textLength="78" x="516.5" y="61.9482">LightSwitch</text><!--cluster HasMemory--><rect fill="#FEFECE" filter="url(#fyjhw1oytq0za)" height="298" rx="12.5" ry="12.5" style="stroke: #A80036; stroke-width: 1.5;" width="742" x="315" y="95.9531"/><rect fill="#FFFFFF" height="265.7031" rx="12.5" ry="12.5" style="stroke: #FFFFFF; stroke-width: 1.0;" width="736" x="318" y="125.25"/><line style="stroke: #A80036; stroke-width: 1.5;" x1="315" x2="1057" y1="122.25" y2="122.25"/><text fill="#000000" font-family="sans-serif" font-size="14" lengthAdjust="spacingAndGlyphs" textLength="81" x="645.5" y="112.9482">HasMemory</text><!--cluster WithPower--><rect fill="#FEFECE" filter="url(#fyjhw1oytq0za)" height="191" rx="12.5" ry="12.5" style="stroke: #A80036; stroke-width: 1.5;" width="484" x="533" y="154.9531"/><rect fill="#FFFFFF" height="158.7031" rx="12.5" ry="12.5" style="stroke: #FFFFFF; stroke-width: 1.0;" width="478" x="536" y="184.25"/><line style="stroke: #A80036; stroke-width: 1.5;" x1="533" x2="1017" y1="181.25" y2="181.25"/><text fill="#000000" font-family="sans-serif" font-size="14" lengthAdjust="spacingAndGlyphs" textLength="73" x="738.5" y="171.9482">WithPower</text><ellipse cx="48" cy="336.9531" fill="#000000" filter="url(#fyjhw1oytq0za)" rx="10" ry="10" style="stroke: none; stroke-width: 1.0;"/><rect fill="#FEFECE" filter="url(#fyjhw1oytq0za)" height="50" rx="12.5" ry="12.5" style="stroke: #A80036; stroke-width: 1.5;" width="82" x="119" y="311.9531"/><line style="stroke: #A80036; stroke-width: 1.5;" x1="119" x2="201" y1="338.25" y2="338.25"/><text fill="#000000" font-family="sans-serif" font-size="14" lengthAdjust="spacingAndGlyphs" textLength="62" x="129" y="329.9482">NoPower</text><ellipse cx="396" cy="181.9531" fill="#000000" filter="url(#fyjhw1oytq0za)" rx="10" ry="10" style="stroke: none; stroke-width: 1.0;"/><rect fill="#FEFECE" filter="url(#fyjhw1oytq0za)" height="50" rx="12.5" ry="12.5" style="stroke: #A80036; stroke-width: 1.5;" width="114" x="339" y="271.9531"/><line style="stroke: #A80036; stroke-width: 1.5;" x1="339" x2="453" y1="298.25" y2="298.25"/><text fill="#000000" font-family="sans-serif" font-size="14" lengthAdjust="spacingAndGlyphs" textLength="94" x="349" y="289.9482">JustTurnedOff</text><ellipse cx="582" cy="226.9531" fill="#000000" filter="url(#fyjhw1oytq0za)" rx="10" ry="10" style="stroke: none; stroke-width: 1.0;"/><rect fill="#FEFECE" filter="url(#fyjhw1oytq0za)" height="50" rx="12.5" ry="12.5" style="stroke: #A80036; stroke-width: 1.5;" width="72" x="921" y="237.9531"/><line style="stroke: #A80036; stroke-width: 1.5;" x1="921" x2="993" y1="264.25" y2="264.25"/><text fill="#000000" font-family="sans-serif" font-size="14" lengthAdjust="spacingAndGlyphs" textLength="52" x="931" y="255.9482">LightOff</text><rect fill="#FEFECE" filter="url(#fyjhw1oytq0za)" height="50" rx="12.5" ry="12.5" style="stroke: #A80036; stroke-width: 1.5;" width="73" x="668" y="212.9531"/><line style="stroke: #A80036; stroke-width: 1.5;" x1="668" x2="741" y1="239.25" y2="239.25"/><text fill="#000000" font-family="sans-serif" font-size="14" lengthAdjust="spacingAndGlyphs" textLength="53" x="678" y="230.9482">LightOn</text><rect fill="#FEFECE" filter="url(#fyjhw1oytq0za)" height="50" rx="12.5" ry="12.5" style="stroke: #A80036; stroke-width: 1.5;" width="50" x="557" y="271.9531"/><line style="stroke: #A80036; stroke-width: 1.5;" x1="557" x2="607" y1="298.25" y2="298.25"/><text fill="#000000" font-family="sans-serif" font-size="14" lengthAdjust="spacingAndGlyphs" textLength="10" x="577" y="289.9482">H</text><!--link *start*LightSwitch to NoPower--><path d="M58.0018,336.9531 C70.2058,336.9531 92.8663,336.9531 113.635,336.9531 " fill="none" id="*start*LightSwitch-NoPower" style="stroke: #A80036; stroke-width: 1.0;"/><polygon fill="#A80036" points="118.867,336.9531,109.867,332.9531,113.867,336.9531,109.867,340.9531,118.867,336.9531" style="stroke: #A80036; stroke-width: 1.0;"/><!--link *start*HasMemory to WithPower--><path d="M406.125,181.9531 C424.3985,181.9531 467.0473,181.9531 505.6501,181.9531 C510.4755,181.9531 515.2376,181.9531 519.881,181.9531 C522.2028,181.9531 524.4948,181.9531 526.7502,181.9531 C527.8779,181.9531 528.9964,181.9531 530.105,181.9531 C530.6592,181.9531 531.211,181.9531 531.7601,181.9531 C532.0347,181.9531 532.3086,181.9531 532.5819,181.9531 " fill="none" id="*start*HasMemory-WithPower" style="stroke: #A80036; stroke-width: 1.0;"/><polygon fill="#A80036" points="532.5819,181.9531,523.5819,177.9531,527.5819,181.9531,523.5819,185.9531,532.5819,181.9531" style="stroke: #A80036; stroke-width: 1.0;"/><!--link JustTurnedOff to historystate--><path d="M453.206,296.9531 C485.704,296.9531 525.262,296.9531 551.678,296.9531 " fill="none" id="JustTurnedOff-historystate" style="stroke: #A80036; stroke-width: 1.0;"/><polygon fill="#A80036" points="556.78,296.9531,547.78,292.9531,551.78,296.9531,547.78,300.9531,556.78,296.9531" style="stroke: #A80036; stroke-width: 1.0;"/><text fill="#000000" font-family="sans-serif" font-size="13" lengthAdjust="spacingAndGlyphs" textLength="24" x="484" y="293.02">flick</text><!--link JustTurnedOff to NoPower--><path d="M338.674,306.5811 C298.077,313.5211 244.004,322.7641 206.215,329.2241 " fill="none" id="JustTurnedOff-NoPower" style="stroke: #A80036; stroke-width: 1.0;"/><polygon fill="#A80036" points="201.226,330.0771,210.7708,332.5055,206.1547,329.2357,209.4245,324.6196,201.226,330.0771" style="stroke: #A80036; stroke-width: 1.0;"/><text fill="#000000" font-family="sans-serif" font-size="13" lengthAdjust="spacingAndGlyphs" textLength="58" x="232" y="311.02">[after(2)]</text><!--link *start*WithPower to LightOn--><path d="M592.057,227.7801 C606.938,229.1381 637.438,231.9221 662.774,234.2351 " fill="none" id="*start*WithPower-LightOn" style="stroke: #A80036; stroke-width: 1.0;"/><polygon fill="#A80036" points="667.766,234.6911,659.1667,229.8898,662.7867,234.2368,658.4398,237.8567,667.766,234.6911" style="stroke: #A80036; stroke-width: 1.0;"/><!--link WithPower to JustTurnedOff--><path d="M532.868,189.4992 C532.4387,189.6487 532.0104,189.8011 531.5831,189.9565 C529.874,190.5782 528.1826,191.248 526.5207,191.9698 C523.197,193.4133 519.9915,195.0645 517,196.9531 C512.187,199.9911 513.02,202.9241 509,206.9531 C486.525,229.4771 458.64,251.9001 436.316,268.7311 " fill="none" id="WithPower-JustTurnedOff" style="stroke: #A80036; stroke-width: 1.0;"/><polygon fill="#A80036" points="432.215,271.8071,441.8146,269.6055,436.2145,268.8064,437.0135,263.2063,432.215,271.8071" style="stroke: #A80036; stroke-width: 1.0;"/><text fill="#000000" font-family="sans-serif" font-size="13" lengthAdjust="spacingAndGlyphs" textLength="24" x="484" y="203.02">flick</text><!--link LightOff to LightOn--><path d="M920.902,259.4501 C875.028,254.8721 794.831,246.8681 746.3,242.0251 " fill="none" id="LightOff-LightOn" style="stroke: #A80036; stroke-width: 1.0;"/><polygon fill="#A80036" points="741.125,241.5081,749.6826,246.3833,746.1002,242.0054,750.4782,238.423,741.125,241.5081" style="stroke: #A80036; stroke-width: 1.0;"/><text fill="#000000" font-family="sans-serif" font-size="13" lengthAdjust="spacingAndGlyphs" textLength="118" x="772" y="241.02">remotePressedON</text><!--link LightOn to LightOff--><path d="M735.613,262.9651 C746.149,270.2311 758.488,277.2131 771,280.9531 C819.379,295.4141 877.733,285.4721 915.793,275.5561 " fill="none" id="LightOn-LightOff" style="stroke: #A80036; stroke-width: 1.0;"/><polygon fill="#A80036" points="920.794,274.2231,911.0672,272.6775,915.9629,275.5116,913.1288,280.4073,920.794,274.2231" style="stroke: #A80036; stroke-width: 1.0;"/><text fill="#000000" font-family="sans-serif" font-size="13" lengthAdjust="spacingAndGlyphs" textLength="116" x="773" y="277.02">remotePressedOff</text><!--link NoPower to HasMemory--><path d="M201.22,351.2906 C228.465,360.4075 265.472,371.6451 299,377.9531 C304.0951,378.9118 309.364,379.7555 314.6898,380.4982 " fill="none" id="NoPower-HasMemory" style="stroke: #A80036; stroke-width: 1.0;"/><polygon fill="#A80036" points="314.6898,380.4982,306.3285,375.2935,309.7377,379.8076,305.2236,383.2169,314.6898,380.4982" style="stroke: #A80036; stroke-width: 1.0;"/><text fill="#000000" font-family="sans-serif" font-size="13" lengthAdjust="spacingAndGlyphs" textLength="24" x="249" y="357.02">flick</text><!--
@startuml
left to right direction
title State Chart
state "LightSwitch" as LightSwitch {
  [*] - -> NoPower
  state "HasMemory" as HasMemory {
    [*] - -> WithPower
    state "JustTurnedOff" as JustTurnedOff {
      JustTurnedOff - -> historystate : flick
      JustTurnedOff - -> NoPower : [after(2)]
    }
    state "WithPower" as WithPower {
      [*] - -> LightOn
      WithPower - -> JustTurnedOff : flick
      state "LightOff" as LightOff {
        LightOff - -> LightOn : remotePressedON
      }
      state "LightOn" as LightOn {
        LightOn - -> LightOff : remotePressedOff
      }
      state "H" as historystate {
      }
    }
  }
  state "NoPower" as NoPower {
    NoPower - -> HasMemory : flick
  }
}
@enduml

PlantUML version 1.2019.05(Sat Apr 20 16:45:36 UTC 2019)
(GPL source distribution)
Java Runtime: Java(TM) SE Runtime Environment
JVM: Java HotSpot(TM) 64-Bit Server VM
Java Version: 1.7.0_25-b15
Operating System: Linux
Default Encoding: UTF-8
Language: en
Country: US
--></g></svg>