<?xml version="1.0" encoding="UTF-8" standalone="no"?><svg xmlns="http://www.w3.org/2000/svg" xmlns:xlink="http://www.w3.org/1999/xlink" contentScriptType="application/ecmascript" contentStyleType="text/css" height="874px" preserveAspectRatio="none" style="width:1283px;height:874px;" version="1.1" viewBox="0 0 1283 874" width="1283px" zoomAndPan="magnify"><defs><filter height="300%" id="fwjtar8vpeevt" width="300%" x="-1" y="-1"><feGaussianBlur result="blurOut" stdDeviation="2.0"/><feColorMatrix in="blurOut" result="blurOut2" type="matrix" values="0 0 0 0 0 0 0 0 0 0 0 0 0 0 0 0 0 0 .4 0"/><feOffset dx="4.0" dy="4.0" in="blurOut2" result="blurOut3"/><feBlend in="SourceGraphic" in2="blurOut3" mode="normal"/></filter></defs><g><text fill="#000000" font-family="sans-serif" font-size="18" lengthAdjust="spacingAndGlyphs" textLength="186" x="559.5" y="16.708">State Chart for Realz</text><!--cluster LightAndFanSwitch--><rect fill="#FEFECE" filter="url(#fwjtar8vpeevt)" height="819" rx="12.5" ry="12.5" style="stroke: #A80036; stroke-width: 1.5;" width="1249" x="22" y="44.9531"/><rect fill="#FFFFFF" height="786.7031" rx="12.5" ry="12.5" style="stroke: #FFFFFF; stroke-width: 1.0;" width="1243" x="25" y="74.25"/><line style="stroke: #A80036; stroke-width: 1.5;" x1="22" x2="1271" y1="71.25" y2="71.25"/><text fill="#000000" font-family="sans-serif" font-size="14" lengthAdjust="spacingAndGlyphs" textLength="130" x="581.5" y="61.9482">LightAndFanSwitch</text><!--cluster HasMemory--><rect fill="#FEFECE" filter="url(#fwjtar8vpeevt)" height="736" rx="12.5" ry="12.5" style="stroke: #A80036; stroke-width: 1.5;" width="924" x="315" y="95.9531"/><rect fill="#FFFFFF" height="703.7031" rx="12.5" ry="12.5" style="stroke: #FFFFFF; stroke-width: 1.0;" width="918" x="318" y="125.25"/><line style="stroke: #A80036; stroke-width: 1.5;" x1="315" x2="1239" y1="122.25" y2="122.25"/><text fill="#000000" font-family="sans-serif" font-size="14" lengthAdjust="spacingAndGlyphs" textLength="81" x="736.5" y="112.9482">HasMemory</text><!--cluster WithPower--><rect fill="#FEFECE" filter="url(#fwjtar8vpeevt)" height="629" rx="12.5" ry="12.5" style="stroke: #A80036; stroke-width: 1.5;" width="666" x="533" y="154.9531"/><rect fill="#FFFFFF" height="596.7031" rx="12.5" ry="12.5" style="stroke: #FFFFFF; stroke-width: 1.0;" width="660" x="536" y="184.25"/><line style="stroke: #A80036; stroke-width: 1.5;" x1="533" x2="1199" y1="181.25" y2="181.25"/><text fill="#000000" font-family="sans-serif" font-size="14" lengthAdjust="spacingAndGlyphs" textLength="73" x="829.5" y="171.9482">WithPower</text><ellipse cx="48" cy="728.9531" fill="#000000" filter="url(#fwjtar8vpeevt)" rx="10" ry="10" style="stroke: none; stroke-width: 1.0;"/><rect fill="#FEFECE" filter="url(#fwjtar8vpeevt)" height="50" rx="12.5" ry="12.5" style="stroke: #A80036; stroke-width: 1.5;" width="82" x="119" y="703.9531"/><line style="stroke: #A80036; stroke-width: 1.5;" x1="119" x2="201" y1="730.25" y2="730.25"/><text fill="#000000" font-family="sans-serif" font-size="14" lengthAdjust="spacingAndGlyphs" textLength="62" x="129" y="721.9482">NoPower</text><ellipse cx="396" cy="181.9531" fill="#000000" filter="url(#fwjtar8vpeevt)" rx="10" ry="10" style="stroke: none; stroke-width: 1.0;"/><rect fill="#FEFECE" filter="url(#fwjtar8vpeevt)" height="50" rx="12.5" ry="12.5" style="stroke: #A80036; stroke-width: 1.5;" width="114" x="339" y="618.9531"/><line style="stroke: #A80036; stroke-width: 1.5;" x1="339" x2="453" y1="645.25" y2="645.25"/><text fill="#000000" font-family="sans-serif" font-size="14" lengthAdjust="spacingAndGlyphs" textLength="94" x="349" y="636.9482">JustTurnedOff</text><ellipse cx="582" cy="482.9531" fill="#000000" filter="url(#fwjtar8vpeevt)" rx="10" ry="10" style="stroke: none; stroke-width: 1.0;"/><rect fill="#FEFECE" filter="url(#fwjtar8vpeevt)" height="553.2969" rx="12.5" ry="12.5" style="stroke: #A80036; stroke-width: 1.5;" width="507" x="668" y="206.4531"/><rect fill="#FFFFFF" height="521" rx="12.5" ry="12.5" style="stroke: #FFFFFF; stroke-width: 1.0;" width="501" x="671" y="235.75"/><line style="stroke: #A80036; stroke-width: 1.5;" x1="668" x2="1175" y1="232.75" y2="232.75"/><text fill="#000000" font-family="sans-serif" font-size="14" lengthAdjust="spacingAndGlyphs" textLength="90" x="876.5" y="224.4482">Components</text><!--cluster Fan--><rect fill="#FEFECE" filter="url(#fwjtar8vpeevt)" height="328" rx="12.5" ry="12.5" style="stroke: #A80036; stroke-width: 1.5;" width="414.72" x="703" y="269.75"/><rect fill="#FFFFFF" height="295.7031" rx="12.5" ry="12.5" style="stroke: #FFFFFF; stroke-width: 1.0;" width="408.72" x="706" y="299.0469"/><line style="stroke: #A80036; stroke-width: 1.5;" x1="703" x2="1117.72" y1="296.0469" y2="296.0469"/><text fill="#000000" font-family="sans-serif" font-size="14" lengthAdjust="spacingAndGlyphs" textLength="25" x="897.86" y="286.7451">Fan</text><ellipse cx="933.72" cy="359.75" fill="#000000" filter="url(#fwjtar8vpeevt)" rx="10" ry="10" style="stroke: none; stroke-width: 1.0;"/><rect fill="#FEFECE" filter="url(#fwjtar8vpeevt)" height="50" rx="12.5" ry="12.5" style="stroke: #A80036; stroke-width: 1.5;" width="58" x="904.72" y="523.75"/><line style="stroke: #A80036; stroke-width: 1.5;" x1="904.72" x2="962.72" y1="550.0469" y2="550.0469"/><text fill="#000000" font-family="sans-serif" font-size="14" lengthAdjust="spacingAndGlyphs" textLength="38" x="914.72" y="541.7451">FanHi</text><rect fill="#FEFECE" filter="url(#fwjtar8vpeevt)" height="50" rx="12.5" ry="12.5" style="stroke: #A80036; stroke-width: 1.5;" width="75" x="896.22" y="455.75"/><line style="stroke: #A80036; stroke-width: 1.5;" x1="896.22" x2="971.22" y1="482.0469" y2="482.0469"/><text fill="#000000" font-family="sans-serif" font-size="14" lengthAdjust="spacingAndGlyphs" textLength="55" x="906.22" y="473.7451">FanMed</text><rect fill="#FEFECE" filter="url(#fwjtar8vpeevt)" height="50" rx="12.5" ry="12.5" style="stroke: #A80036; stroke-width: 1.5;" width="72" x="897.72" y="387.75"/><line style="stroke: #A80036; stroke-width: 1.5;" x1="897.72" x2="969.72" y1="414.0469" y2="414.0469"/><text fill="#000000" font-family="sans-serif" font-size="14" lengthAdjust="spacingAndGlyphs" textLength="52" x="907.72" y="405.7451">FanLow</text><rect fill="#FEFECE" filter="url(#fwjtar8vpeevt)" height="50" rx="12.5" ry="12.5" style="stroke: #A80036; stroke-width: 1.5;" width="64" x="1029.72" y="349.75"/><line style="stroke: #A80036; stroke-width: 1.5;" x1="1029.72" x2="1093.72" y1="376.0469" y2="376.0469"/><text fill="#000000" font-family="sans-serif" font-size="14" lengthAdjust="spacingAndGlyphs" textLength="44" x="1039.72" y="367.7451">FanOff</text><!--link *start*Fan to FanOff--><path d="M943.782,360.829 C960.408,362.808 996.629,367.12 1024.383,370.424 " fill="none" id="*start*Fan-FanOff" style="stroke: #A80036; stroke-width: 1.0;"/><polygon fill="#A80036" points="1029.46,371.029,1020.9964,365.9924,1024.4951,370.4375,1020.05,373.9362,1029.46,371.029" style="stroke: #A80036; stroke-width: 1.0;"/><!--link Fan to FanOff--><path d="M711.7333,439.678 C712.0099,438.194 716.6392,414.266 729.72,401.75 C780.237,353.416 806.186,354.579 874.72,340.75 C926.128,330.377 941.678,328.701 992.72,340.75 C1003.748,343.353 1015.028,348.035 1025.149,353.107 " fill="none" id="Fan-FanOff" style="stroke: #A80036; stroke-width: 1.0;"/><polygon fill="#A80036" points="1029.713,355.459,1023.5467,347.7794,1025.2689,353.1677,1019.8806,354.8899,1029.713,355.459" style="stroke: #A80036; stroke-width: 1.0;"/><text fill="#000000" font-family="sans-serif" font-size="13" lengthAdjust="spacingAndGlyphs" textLength="116" x="875.72" y="328.8169">remotePressedOff</text><!--link Fan to FanLow--><path d="M711.8802,439.73 C716.7112,439.14 829.653,425.342 892.1,417.713 " fill="none" id="Fan-FanLow" style="stroke: #A80036; stroke-width: 1.0;"/><polygon fill="#A80036" points="897.243,417.084,887.8247,414.2038,892.2798,417.6898,888.7939,422.1449,897.243,417.084" style="stroke: #A80036; stroke-width: 1.0;"/><text fill="#000000" font-family="sans-serif" font-size="13" lengthAdjust="spacingAndGlyphs" textLength="122" x="732.22" y="418.8169">remotePressedLow</text><!--link Fan to FanMed--><path d="M711.8076,439.907 C712.6783,441.445 719.9493,453.907 729.72,458.75 C780.995,484.166 848.329,486.275 891.076,484.366 " fill="none" id="Fan-FanMed" style="stroke: #A80036; stroke-width: 1.0;"/><polygon fill="#A80036" points="896.165,484.114,886.9793,480.5612,891.171,484.3598,887.3725,488.5515,896.165,484.114" style="stroke: #A80036; stroke-width: 1.0;"/><text fill="#000000" font-family="sans-serif" font-size="13" lengthAdjust="spacingAndGlyphs" textLength="125" x="730.72" y="454.8169">remotePressedMed</text><!--link Fan to FanHi--><path d="M711.7098,439.878 C711.5082,442.503 708.6122,484.806 729.72,504.75 C775.94,548.4206 854.799,552.8063 899.405,551.3066 " fill="none" id="Fan-FanHi" style="stroke: #A80036; stroke-width: 1.0;"/><polygon fill="#A80036" points="904.671,551.0967,895.5192,547.4573,899.6749,551.2953,895.837,555.451,904.671,551.0967" style="stroke: #A80036; stroke-width: 1.0;"/><text fill="#000000" font-family="sans-serif" font-size="13" lengthAdjust="spacingAndGlyphs" textLength="111" x="737.72" y="500.8169">remotePressedHi</text><line style="stroke: #A80036; stroke-width: 1.5; stroke-dasharray: 8.0,10.0;" x1="673" x2="1168" y1="631.75" y2="631.75"/><rect fill="#FEFECE" filter="url(#fwjtar8vpeevt)" height="105.2969" rx="12.5" ry="12.5" style="stroke: #A80036; stroke-width: 1.5;" width="402" x="679" y="639.75"/><rect fill="#FFFFFF" height="73" rx="12.5" ry="12.5" style="stroke: #FFFFFF; stroke-width: 1.0;" width="396" x="682" y="669.0469"/><line style="stroke: #A80036; stroke-width: 1.5;" x1="679" x2="1081" y1="666.0469" y2="666.0469"/><text fill="#000000" font-family="sans-serif" font-size="14" lengthAdjust="spacingAndGlyphs" textLength="33" x="863.5" y="657.7451">Light</text><ellipse cx="700" cy="704.216" fill="#000000" filter="url(#fwjtar8vpeevt)" rx="10" ry="10" style="stroke: none; stroke-width: 1.0;"/><rect fill="#FEFECE" filter="url(#fwjtar8vpeevt)" height="50" rx="12.5" ry="12.5" style="stroke: #A80036; stroke-width: 1.5;" width="72" x="976" y="679.216"/><line style="stroke: #A80036; stroke-width: 1.5;" x1="976" x2="1048" y1="705.5129" y2="705.5129"/><text fill="#000000" font-family="sans-serif" font-size="14" lengthAdjust="spacingAndGlyphs" textLength="52" x="986" y="697.2111">LightOff</text><rect fill="#FEFECE" filter="url(#fwjtar8vpeevt)" height="50" rx="12.5" ry="12.5" style="stroke: #A80036; stroke-width: 1.5;" width="73" x="747" y="679.216"/><line style="stroke: #A80036; stroke-width: 1.5;" x1="747" x2="820" y1="705.5129" y2="705.5129"/><text fill="#000000" font-family="sans-serif" font-size="14" lengthAdjust="spacingAndGlyphs" textLength="53" x="757" y="697.2111">LightOn</text><!--link *start*Light to LightOn--><path d="M710.0333,704.216 C717.8663,704.216 729.791,704.216 741.7192,704.216 " fill="none" id="*start*Light-LightOn" style="stroke: #A80036; stroke-width: 1.0;"/><polygon fill="#A80036" points="746.8196,704.216,737.8196,700.216,741.8196,704.216,737.8196,708.216,746.8196,704.216" style="stroke: #A80036; stroke-width: 1.0;"/><!--link LightOff to LightOn--><path d="M975.819,718.7163 C969.959,720.5815 963.875,722.1948 958,723.216 C905.455,732.3499 890.559,732.2718 838,723.216 C833.741,722.4822 829.372,721.4425 825.055,720.2231 " fill="none" id="LightOff-LightOn" style="stroke: #A80036; stroke-width: 1.0;"/><polygon fill="#A80036" points="820.021,718.7167,827.4972,725.1281,824.8113,720.1496,829.7898,717.4637,820.021,718.7167" style="stroke: #A80036; stroke-width: 1.0;"/><text fill="#000000" font-family="sans-serif" font-size="13" lengthAdjust="spacingAndGlyphs" textLength="118" x="839" y="719.2829">remotePressedON</text><!--link LightOn to LightOff--><path d="M820.14,704.216 C861.082,704.216 928.1,704.216 970.85,704.216 " fill="none" id="LightOn-LightOff" style="stroke: #A80036; stroke-width: 1.0;"/><polygon fill="#A80036" points="975.94,704.216,966.94,700.216,970.94,704.216,966.94,708.216,975.94,704.216" style="stroke: #A80036; stroke-width: 1.0;"/><text fill="#000000" font-family="sans-serif" font-size="13" lengthAdjust="spacingAndGlyphs" textLength="116" x="840" y="700.2829">remotePressedOff</text><rect fill="#FEFECE" filter="url(#fwjtar8vpeevt)" height="50" rx="12.5" ry="12.5" style="stroke: #A80036; stroke-width: 1.5;" width="50" x="557" y="618.9531"/><line style="stroke: #A80036; stroke-width: 1.5;" x1="557" x2="607" y1="645.25" y2="645.25"/><text fill="#000000" font-family="sans-serif" font-size="14" lengthAdjust="spacingAndGlyphs" textLength="17" x="573.5" y="636.9482">H*</text><!--link *start*LightAndFanSwitch to NoPower--><path d="M58.0018,728.9531 C70.2058,728.9531 92.8663,728.9531 113.635,728.9531 " fill="none" id="*start*LightAndFanSwitch-NoPower" style="stroke: #A80036; stroke-width: 1.0;"/><polygon fill="#A80036" points="118.867,728.9531,109.867,724.9531,113.867,728.9531,109.867,732.9531,118.867,728.9531" style="stroke: #A80036; stroke-width: 1.0;"/><!--link *start*HasMemory to WithPower--><path d="M406.125,181.9531 C424.3985,181.9531 467.0473,181.9531 505.6501,181.9531 C510.4755,181.9531 515.2376,181.9531 519.881,181.9531 C522.2028,181.9531 524.4948,181.9531 526.7502,181.9531 C527.8779,181.9531 528.9964,181.9531 530.105,181.9531 C530.6592,181.9531 531.211,181.9531 531.7601,181.9531 C532.0347,181.9531 532.3086,181.9531 532.5819,181.9531 " fill="none" id="*start*HasMemory-WithPower" style="stroke: #A80036; stroke-width: 1.0;"/><polygon fill="#A80036" points="532.5819,181.9531,523.5819,177.9531,527.5819,181.9531,523.5819,185.9531,532.5819,181.9531" style="stroke: #A80036; stroke-width: 1.0;"/><!--link JustTurnedOff to historystate--><path d="M453.206,643.9531 C485.704,643.9531 525.262,643.9531 551.678,643.9531 " fill="none" id="JustTurnedOff-historystate" style="stroke: #A80036; stroke-width: 1.0;"/><polygon fill="#A80036" points="556.78,643.9531,547.78,639.9531,551.78,643.9531,547.78,647.9531,556.78,643.9531" style="stroke: #A80036; stroke-width: 1.0;"/><text fill="#000000" font-family="sans-serif" font-size="13" lengthAdjust="spacingAndGlyphs" textLength="24" x="484" y="640.02">flick</text><!--link JustTurnedOff to NoPower--><path d="M338.878,659.9591 C325.72,663.9731 311.805,668.4311 299,672.9531 C267.556,684.0561 232.768,698.1851 205.987,709.4731 " fill="none" id="JustTurnedOff-NoPower" style="stroke: #A80036; stroke-width: 1.0;"/><polygon fill="#A80036" points="201.083,711.5471,210.9302,711.7294,205.6889,709.6013,207.8169,704.36,201.083,711.5471" style="stroke: #A80036; stroke-width: 1.0;"/><text fill="#000000" font-family="sans-serif" font-size="13" lengthAdjust="spacingAndGlyphs" textLength="58" x="232" y="674.02">[after(2)]</text><!--link *start*WithPower to Components--><path d="M592.027,482.9531 C605.013,482.9531 630.942,482.9531 662.791,482.9531 " fill="none" id="*start*WithPower-Components" style="stroke: #A80036; stroke-width: 1.0;"/><polygon fill="#A80036" points="667.953,482.9531,658.953,478.9531,662.953,482.9531,658.953,486.9531,667.953,482.9531" style="stroke: #A80036; stroke-width: 1.0;"/><!--link WithPower to JustTurnedOff--><path d="M532.9255,181.5782 C532.0908,181.8231 531.2629,182.0873 530.4435,182.372 C528.8049,182.9414 527.2005,183.5928 525.6444,184.3352 C522.5323,185.8199 519.6134,187.6685 517,189.9531 C508.738,197.1751 429.45,513.5551 404.486,613.8131 " fill="none" id="WithPower-JustTurnedOff" style="stroke: #A80036; stroke-width: 1.0;"/><polygon fill="#A80036" points="403.269,618.7031,409.3238,610.9353,404.4763,613.8511,401.5605,609.0036,403.269,618.7031" style="stroke: #A80036; stroke-width: 1.0;"/><text fill="#000000" font-family="sans-serif" font-size="13" lengthAdjust="spacingAndGlyphs" textLength="24" x="484" y="213.02">flick</text><!--link NoPower to HasMemory--><path d="M191.134,754.0071 C217.718,774.5551 258.443,802.3859 299,815.9531 C303.9168,817.5979 309.0504,818.9616 314.2764,820.0883 C314.4397,820.1235 314.6031,820.1584 314.7666,820.1932 " fill="none" id="NoPower-HasMemory" style="stroke: #A80036; stroke-width: 1.0;"/><polygon fill="#A80036" points="314.7666,820.1932,306.7948,814.4096,309.8759,819.1538,305.1317,822.2348,314.7666,820.1932" style="stroke: #A80036; stroke-width: 1.0;"/><text fill="#000000" font-family="sans-serif" font-size="13" lengthAdjust="spacingAndGlyphs" textLength="24" x="249" y="778.02">flick</text><!--
@startuml
left to right direction
title State Chart for Realz
state "LightAndFanSwitch" as LightAndFanSwitch {
  [*] - -> NoPower
  state "HasMemory" as HasMemory {
    [*] - -> WithPower
    state "JustTurnedOff" as JustTurnedOff {
      JustTurnedOff - -> historystate : flick
      JustTurnedOff - -> NoPower : [after(2)]
    }
    state "WithPower" as WithPower {
      [*] - -> Components
      WithPower - -> JustTurnedOff : flick
      state "Components" as Components {
        state "Fan" as Fan {
          [*] - -> FanOff
          Fan - -> FanOff : remotePressedOff
          Fan - -> FanLow : remotePressedLow
          Fan - -> FanMed : remotePressedMed
          Fan - -> FanHi : remotePressedHi
          state "FanHi" as FanHi {
          }
          state "FanMed" as FanMed {
          }
          state "FanLow" as FanLow {
          }
          state "FanOff" as FanOff {
          }
        }
        - -
        state "Light" as Light {
          [*] - -> LightOn
          state "LightOff" as LightOff {
            LightOff - -> LightOn : remotePressedON
          }
          state "LightOn" as LightOn {
            LightOn - -> LightOff : remotePressedOff
          }
        }
      }
      state "H*" as historystate {
      }
    }
  }
  state "NoPower" as NoPower {
    NoPower - -> HasMemory : flick
  }
}
@enduml

PlantUML version 1.2019.05(Sat Apr 20 16:45:36 UTC 2019)
(GPL source distribution)
Java Runtime: Java(TM) SE Runtime Environment
JVM: Java HotSpot(TM) 64-Bit Server VM
Java Version: 1.7.0_25-b15
Operating System: Linux
Default Encoding: UTF-8
Language: en
Country: US
--></g></svg>