<?xml version="1.0" encoding="UTF-8" standalone="no"?>
<!DOCTYPE svg PUBLIC "-//W3C//DTD SVG 1.1//EN"
 "http://www.w3.org/Graphics/SVG/1.1/DTD/svg11.dtd">
<!-- Generated by graphviz version 2.41.20190204.1309 (20190204.1309)
 -->
<!-- Title: %3 Pages: 1 -->
<svg width="377pt" height="406pt"
 viewBox="0.00 0.00 377.00 406.20" xmlns="http://www.w3.org/2000/svg" xmlns:xlink="http://www.w3.org/1999/xlink">
<g id="graph0" class="graph" transform="scale(1 1) rotate(0) translate(4 402.2)">
<title>%3</title>
<polygon fill="white" stroke="transparent" points="-4,4 -4,-402.2 373,-402.2 373,4 -4,4"/>
<text text-anchor="start" x="126.18" y="-9.2" font-family="Times,serif" font-weight="bold" font-size="14.00">Finite State Machine</text>
<g id="clust1" class="cluster">
<title>cluster_LightSwitch</title>
<path fill="none" stroke="black" d="M20,-32.8C20,-32.8 349,-32.8 349,-32.8 355,-32.8 361,-38.8 361,-44.8 361,-44.8 361,-378.2 361,-378.2 361,-384.2 355,-390.2 349,-390.2 349,-390.2 20,-390.2 20,-390.2 14,-390.2 8,-384.2 8,-378.2 8,-378.2 8,-44.8 8,-44.8 8,-38.8 14,-32.8 20,-32.8"/>
<text text-anchor="middle" x="184.5" y="-373.6" font-family="Times,serif" font-size="14.00">LightSwitch</text>
</g>
<!-- initial_LightSwitch -->
<g id="node1" class="node">
<title>initial_LightSwitch</title>
<ellipse fill="black" stroke="black" cx="207" cy="-348.4" rx="9" ry="9"/>
</g>
<!-- NoPower -->
<g id="node2" class="node">
<title>NoPower</title>
<path fill="none" stroke="black" d="M180.83,-277.1C180.83,-277.1 233.17,-277.1 233.17,-277.1 237.3,-277.1 241.44,-281.23 241.44,-285.37 241.44,-285.37 241.44,-293.63 241.44,-293.63 241.44,-297.77 237.3,-301.9 233.17,-301.9 233.17,-301.9 180.83,-301.9 180.83,-301.9 176.7,-301.9 172.56,-297.77 172.56,-293.63 172.56,-293.63 172.56,-285.37 172.56,-285.37 172.56,-281.23 176.7,-277.1 180.83,-277.1"/>
<text text-anchor="middle" x="207" y="-285.3" font-family="Times,serif" font-size="14.00">NoPower</text>
</g>
<!-- initial_LightSwitch&#45;&gt;NoPower -->
<g id="edge1" class="edge">
<title>initial_LightSwitch&#45;&gt;NoPower</title>
<path fill="none" stroke="black" d="M207,-339C207,-331.98 207,-321.65 207,-312.32"/>
<polygon fill="black" stroke="black" points="210.5,-312.09 207,-302.09 203.5,-312.09 210.5,-312.09"/>
</g>
<!-- LightOn -->
<g id="node3" class="node">
<title>LightOn</title>
<path fill="none" stroke="black" d="M134.55,-198.5C134.55,-198.5 181.45,-198.5 181.45,-198.5 185.59,-198.5 189.72,-202.63 189.72,-206.77 189.72,-206.77 189.72,-215.03 189.72,-215.03 189.72,-219.17 185.59,-223.3 181.45,-223.3 181.45,-223.3 134.55,-223.3 134.55,-223.3 130.41,-223.3 126.28,-219.17 126.28,-215.03 126.28,-215.03 126.28,-206.77 126.28,-206.77 126.28,-202.63 130.41,-198.5 134.55,-198.5"/>
<text text-anchor="middle" x="158" y="-206.7" font-family="Times,serif" font-size="14.00">LightOn</text>
</g>
<!-- NoPower&#45;&gt;LightOn -->
<g id="edge6" class="edge">
<title>NoPower&#45;&gt;LightOn</title>
<path fill="none" stroke="black" d="M175.34,-276.98C167.43,-272.5 159.9,-266.5 155.34,-258.6 151.01,-251.08 150.76,-241.7 151.93,-233.32"/>
<polygon fill="black" stroke="black" points="155.37,-233.97 153.99,-223.47 148.52,-232.54 155.37,-233.97"/>
<text text-anchor="middle" x="167.83" y="-246" font-family="Times,serif" font-size="14.00">flick</text>
</g>
<!-- LightOn&#45;&gt;NoPower -->
<g id="edge4" class="edge">
<title>LightOn&#45;&gt;NoPower</title>
<path fill="none" stroke="black" d="M169.9,-223.45C174.95,-228.74 180.66,-235.28 185,-241.8 190.3,-249.76 195,-259.19 198.68,-267.48"/>
<polygon fill="black" stroke="black" points="195.53,-269.01 202.64,-276.87 201.98,-266.29 195.53,-269.01"/>
<text text-anchor="middle" x="206.83" y="-246" font-family="Times,serif" font-size="14.00">flick</text>
</g>
<!-- LightOff -->
<g id="node4" class="node">
<title>LightOff</title>
<path fill="none" stroke="black" d="M133.39,-119.9C133.39,-119.9 182.61,-119.9 182.61,-119.9 186.75,-119.9 190.88,-124.03 190.88,-128.17 190.88,-128.17 190.88,-136.43 190.88,-136.43 190.88,-140.57 186.75,-144.7 182.61,-144.7 182.61,-144.7 133.39,-144.7 133.39,-144.7 129.25,-144.7 125.12,-140.57 125.12,-136.43 125.12,-136.43 125.12,-128.17 125.12,-128.17 125.12,-124.03 129.25,-119.9 133.39,-119.9"/>
<text text-anchor="middle" x="158" y="-128.1" font-family="Times,serif" font-size="14.00">LightOff</text>
</g>
<!-- LightOn&#45;&gt;LightOff -->
<g id="edge5" class="edge">
<title>LightOn&#45;&gt;LightOff</title>
<path fill="none" stroke="black" d="M126.22,-210.35C101.89,-208.8 69.74,-202.25 52.94,-180 34.03,-154.96 77.97,-143.06 114.7,-137.61"/>
<polygon fill="black" stroke="black" points="115.37,-141.05 124.81,-136.23 114.43,-134.11 115.37,-141.05"/>
<text text-anchor="middle" x="102.53" y="-167.4" font-family="Times,serif" font-size="14.00">remotePressedOff</text>
</g>
<!-- LightOff&#45;&gt;LightOn -->
<g id="edge2" class="edge">
<title>LightOff&#45;&gt;LightOn</title>
<path fill="none" stroke="black" d="M158,-145.04C158,-156.44 158,-174.03 158,-188.01"/>
<polygon fill="black" stroke="black" points="154.5,-188.27 158,-198.27 161.5,-188.27 154.5,-188.27"/>
<text text-anchor="middle" x="207.37" y="-167.4" font-family="Times,serif" font-size="14.00">remotePressedOn</text>
</g>
<!-- JustTurnedOff -->
<g id="node5" class="node">
<title>JustTurnedOff</title>
<path fill="none" stroke="black" d="M166.45,-41.3C166.45,-41.3 247.55,-41.3 247.55,-41.3 251.68,-41.3 255.82,-45.43 255.82,-49.57 255.82,-49.57 255.82,-57.83 255.82,-57.83 255.82,-61.97 251.68,-66.1 247.55,-66.1 247.55,-66.1 166.45,-66.1 166.45,-66.1 162.32,-66.1 158.18,-61.97 158.18,-57.83 158.18,-57.83 158.18,-49.57 158.18,-49.57 158.18,-45.43 162.32,-41.3 166.45,-41.3"/>
<text text-anchor="middle" x="207" y="-49.5" font-family="Times,serif" font-size="14.00">JustTurnedOff</text>
</g>
<!-- LightOff&#45;&gt;JustTurnedOff -->
<g id="edge3" class="edge">
<title>LightOff&#45;&gt;JustTurnedOff</title>
<path fill="none" stroke="black" d="M155.45,-119.74C153.9,-109.76 153.22,-95.3 159.34,-84.6 162.13,-79.73 166.07,-75.53 170.51,-71.96"/>
<polygon fill="black" stroke="black" points="172.63,-74.75 178.88,-66.19 168.66,-68.98 172.63,-74.75"/>
<text text-anchor="middle" x="171.83" y="-88.8" font-family="Times,serif" font-size="14.00">flick</text>
</g>
<!-- JustTurnedOff&#45;&gt;NoPower -->
<g id="edge8" class="edge">
<title>JustTurnedOff&#45;&gt;NoPower</title>
<path fill="none" stroke="black" d="M214.79,-66.41C227.04,-85.62 250.19,-125.49 258,-163.2 266.1,-202.32 240.92,-244.78 223.11,-268.86"/>
<polygon fill="black" stroke="black" points="220.27,-266.8 216.95,-276.86 225.82,-271.07 220.27,-266.8"/>
<text text-anchor="middle" x="295.36" y="-167.4" font-family="Times,serif" font-size="14.00"> &#160;&#160;&#160;timeout 2s</text>
</g>
<!-- JustTurnedOff&#45;&gt;LightOff -->
<g id="edge7" class="edge">
<title>JustTurnedOff&#45;&gt;LightOff</title>
<path fill="none" stroke="black" d="M202.64,-66.33C198.72,-76.1 192.45,-90.21 185,-101.4 182.56,-105.07 179.68,-108.74 176.74,-112.2"/>
<polygon fill="black" stroke="black" points="174.01,-109.99 169.9,-119.75 179.2,-114.69 174.01,-109.99"/>
<text text-anchor="middle" x="206.83" y="-88.8" font-family="Times,serif" font-size="14.00">flick</text>
</g>
</g>
</svg>
