<?xml version="1.0" encoding="UTF-8" standalone="no"?>
<!DOCTYPE svg PUBLIC "-//W3C//DTD SVG 1.1//EN"
 "http://www.w3.org/Graphics/SVG/1.1/DTD/svg11.dtd">
<!-- Generated by graphviz version 2.41.20190204.1309 (20190204.1309)
 -->
<!-- Title: %3 Pages: 1 -->
<svg width="623pt" height="616pt"
 viewBox="0.00 0.00 623.28 616.40" xmlns="http://www.w3.org/2000/svg" xmlns:xlink="http://www.w3.org/1999/xlink">
<g id="graph0" class="graph" transform="scale(1 1) rotate(0) translate(4 612.4)">
<title>%3</title>
<polygon fill="white" stroke="transparent" points="-4,4 -4,-612.4 619.28,-612.4 619.28,4 -4,4"/>
<text text-anchor="start" x="249.32" y="-9.2" font-family="Times,serif" font-weight="bold" font-size="14.00">Finite State Machine</text>
<g id="clust1" class="cluster">
<title>cluster_FanSwitch</title>
<path fill="none" stroke="black" d="M20,-32.8C20,-32.8 559,-32.8 559,-32.8 565,-32.8 571,-38.8 571,-44.8 571,-44.8 571,-588.4 571,-588.4 571,-594.4 565,-600.4 559,-600.4 559,-600.4 20,-600.4 20,-600.4 14,-600.4 8,-594.4 8,-588.4 8,-588.4 8,-44.8 8,-44.8 8,-38.8 14,-32.8 20,-32.8"/>
<text text-anchor="middle" x="289.5" y="-583.8" font-family="Times,serif" font-size="14.00">FanSwitch</text>
</g>
<!-- JustTurnedOffFromHi -->
<g id="node1" class="node">
<title>JustTurnedOffFromHi</title>
<path fill="none" stroke="black" d="M278.68,-538.1C278.68,-538.1 401.32,-538.1 401.32,-538.1 406.15,-538.1 410.98,-542.93 410.98,-547.77 410.98,-547.77 410.98,-557.43 410.98,-557.43 410.98,-562.27 406.15,-567.1 401.32,-567.1 401.32,-567.1 278.68,-567.1 278.68,-567.1 273.85,-567.1 269.02,-562.27 269.02,-557.43 269.02,-557.43 269.02,-547.77 269.02,-547.77 269.02,-542.93 273.85,-538.1 278.68,-538.1"/>
<text text-anchor="middle" x="340" y="-548.4" font-family="Times,serif" font-size="14.00">JustTurnedOffFromHi</text>
</g>
<!-- FanHi -->
<g id="node4" class="node">
<title>FanHi</title>
<path fill="none" stroke="black" d="M275.17,-455.3C275.17,-455.3 306.83,-455.3 306.83,-455.3 311.66,-455.3 316.5,-460.13 316.5,-464.97 316.5,-464.97 316.5,-474.63 316.5,-474.63 316.5,-479.47 311.66,-484.3 306.83,-484.3 306.83,-484.3 275.17,-484.3 275.17,-484.3 270.34,-484.3 265.5,-479.47 265.5,-474.63 265.5,-474.63 265.5,-464.97 265.5,-464.97 265.5,-460.13 270.34,-455.3 275.17,-455.3"/>
<text text-anchor="middle" x="291" y="-465.6" font-family="Times,serif" font-size="14.00">FanHi</text>
</g>
<!-- JustTurnedOffFromHi&#45;&gt;FanHi -->
<g id="edge18" class="edge">
<title>JustTurnedOffFromHi&#45;&gt;FanHi</title>
<path fill="none" stroke="black" d="M306.95,-537.99C299.53,-533.3 292.6,-527.25 288.34,-519.6 284.16,-512.09 283.71,-502.89 284.68,-494.51"/>
<polygon fill="black" stroke="black" points="288.15,-494.99 286.51,-484.52 281.26,-493.73 288.15,-494.99"/>
<text text-anchor="middle" x="300.83" y="-507" font-family="Times,serif" font-size="14.00">flick</text>
</g>
<!-- NoPower -->
<g id="node8" class="node">
<title>NoPower</title>
<path fill="none" stroke="black" d="M119.23,-41.3C119.23,-41.3 168.77,-41.3 168.77,-41.3 173.6,-41.3 178.44,-46.13 178.44,-50.97 178.44,-50.97 178.44,-60.63 178.44,-60.63 178.44,-65.47 173.6,-70.3 168.77,-70.3 168.77,-70.3 119.23,-70.3 119.23,-70.3 114.4,-70.3 109.56,-65.47 109.56,-60.63 109.56,-60.63 109.56,-50.97 109.56,-50.97 109.56,-46.13 114.4,-41.3 119.23,-41.3"/>
<text text-anchor="middle" x="144" y="-51.6" font-family="Times,serif" font-size="14.00">NoPower</text>
</g>
<!-- JustTurnedOffFromHi&#45;&gt;NoPower -->
<g id="edge19" class="edge">
<title>JustTurnedOffFromHi&#45;&gt;NoPower</title>
<path fill="none" stroke="black" d="M378.92,-537.97C430.53,-517.52 519.45,-473.5 557,-402 577.78,-362.43 558.49,-236.3 539,-206.4 461.35,-87.27 274.7,-62.78 188.73,-57.91"/>
<polygon fill="black" stroke="black" points="188.68,-54.4 178.51,-57.4 188.33,-61.39 188.68,-54.4"/>
<text text-anchor="middle" x="589.64" y="-300" font-family="Times,serif" font-size="14.00">[after(2)]</text>
</g>
<!-- JustTurnedOffFromMed -->
<g id="node2" class="node">
<title>JustTurnedOffFromMed</title>
<path fill="none" stroke="black" d="M385.85,-206.9C385.85,-206.9 520.15,-206.9 520.15,-206.9 524.98,-206.9 529.81,-211.73 529.81,-216.57 529.81,-216.57 529.81,-226.23 529.81,-226.23 529.81,-231.07 524.98,-235.9 520.15,-235.9 520.15,-235.9 385.85,-235.9 385.85,-235.9 381.02,-235.9 376.19,-231.07 376.19,-226.23 376.19,-226.23 376.19,-216.57 376.19,-216.57 376.19,-211.73 381.02,-206.9 385.85,-206.9"/>
<text text-anchor="middle" x="453" y="-217.2" font-family="Times,serif" font-size="14.00">JustTurnedOffFromMed</text>
</g>
<!-- FanMed -->
<g id="node5" class="node">
<title>FanMed</title>
<path fill="none" stroke="black" d="M423.34,-289.7C423.34,-289.7 466.66,-289.7 466.66,-289.7 471.49,-289.7 476.33,-294.53 476.33,-299.37 476.33,-299.37 476.33,-309.03 476.33,-309.03 476.33,-313.87 471.49,-318.7 466.66,-318.7 466.66,-318.7 423.34,-318.7 423.34,-318.7 418.51,-318.7 413.67,-313.87 413.67,-309.03 413.67,-309.03 413.67,-299.37 413.67,-299.37 413.67,-294.53 418.51,-289.7 423.34,-289.7"/>
<text text-anchor="middle" x="445" y="-300" font-family="Times,serif" font-size="14.00">FanMed</text>
</g>
<!-- JustTurnedOffFromMed&#45;&gt;FanMed -->
<g id="edge22" class="edge">
<title>JustTurnedOffFromMed&#45;&gt;FanMed</title>
<path fill="none" stroke="black" d="M467.83,-236.2C476.29,-245.81 484.25,-259.04 479,-271.2 477.26,-275.22 474.75,-278.97 471.86,-282.38"/>
<polygon fill="black" stroke="black" points="469.16,-280.12 464.63,-289.7 474.14,-285.04 469.16,-280.12"/>
<text text-anchor="middle" x="492.83" y="-258.6" font-family="Times,serif" font-size="14.00">flick</text>
</g>
<!-- JustTurnedOffFromMed&#45;&gt;NoPower -->
<g id="edge23" class="edge">
<title>JustTurnedOffFromMed&#45;&gt;NoPower</title>
<path fill="none" stroke="black" d="M432.12,-206.71C392.96,-181.4 305.38,-126.43 227,-88.8 214.57,-82.83 200.72,-77.14 187.95,-72.25"/>
<polygon fill="black" stroke="black" points="189.03,-68.92 178.44,-68.68 186.57,-75.47 189.03,-68.92"/>
<text text-anchor="middle" x="370.64" y="-134.4" font-family="Times,serif" font-size="14.00">[after(2)]</text>
</g>
<!-- JustTurnedOffFromLow -->
<g id="node3" class="node">
<title>JustTurnedOffFromLow</title>
<path fill="none" stroke="black" d="M124.85,-124.1C124.85,-124.1 259.15,-124.1 259.15,-124.1 263.98,-124.1 268.81,-128.93 268.81,-133.77 268.81,-133.77 268.81,-143.43 268.81,-143.43 268.81,-148.27 263.98,-153.1 259.15,-153.1 259.15,-153.1 124.85,-153.1 124.85,-153.1 120.02,-153.1 115.19,-148.27 115.19,-143.43 115.19,-143.43 115.19,-133.77 115.19,-133.77 115.19,-128.93 120.02,-124.1 124.85,-124.1"/>
<text text-anchor="middle" x="192" y="-134.4" font-family="Times,serif" font-size="14.00">JustTurnedOffFromLow</text>
</g>
<!-- FanLow -->
<g id="node6" class="node">
<title>FanLow</title>
<path fill="none" stroke="black" d="M159.34,-206.9C159.34,-206.9 202.66,-206.9 202.66,-206.9 207.49,-206.9 212.33,-211.73 212.33,-216.57 212.33,-216.57 212.33,-226.23 212.33,-226.23 212.33,-231.07 207.49,-235.9 202.66,-235.9 202.66,-235.9 159.34,-235.9 159.34,-235.9 154.51,-235.9 149.67,-231.07 149.67,-226.23 149.67,-226.23 149.67,-216.57 149.67,-216.57 149.67,-211.73 154.51,-206.9 159.34,-206.9"/>
<text text-anchor="middle" x="181" y="-217.2" font-family="Times,serif" font-size="14.00">FanLow</text>
</g>
<!-- JustTurnedOffFromLow&#45;&gt;FanLow -->
<g id="edge20" class="edge">
<title>JustTurnedOffFromLow&#45;&gt;FanLow</title>
<path fill="none" stroke="black" d="M173.14,-153.24C167.63,-158.32 162.3,-164.57 159.34,-171.6 155.65,-180.39 158.42,-189.99 163.05,-198.33"/>
<polygon fill="black" stroke="black" points="160.19,-200.34 168.59,-206.79 166.04,-196.51 160.19,-200.34"/>
<text text-anchor="middle" x="171.83" y="-175.8" font-family="Times,serif" font-size="14.00">flick</text>
</g>
<!-- JustTurnedOffFromLow&#45;&gt;NoPower -->
<g id="edge21" class="edge">
<title>JustTurnedOffFromLow&#45;&gt;NoPower</title>
<path fill="none" stroke="black" d="M183.86,-123.89C176.57,-111.63 165.76,-93.43 157.23,-79.08"/>
<polygon fill="black" stroke="black" points="160.14,-77.11 152.02,-70.3 154.12,-80.69 160.14,-77.11"/>
<text text-anchor="middle" x="197.64" y="-93" font-family="Times,serif" font-size="14.00">[after(2)]</text>
</g>
<!-- FanHi&#45;&gt;JustTurnedOffFromHi -->
<g id="edge2" class="edge">
<title>FanHi&#45;&gt;JustTurnedOffFromHi</title>
<path fill="none" stroke="black" d="M303.99,-484.48C308.76,-489.92 313.97,-496.4 318,-502.8 323,-510.74 327.48,-520 331.07,-528.32"/>
<polygon fill="black" stroke="black" points="327.94,-529.91 334.98,-537.83 334.41,-527.25 327.94,-529.91"/>
<text text-anchor="middle" x="339.83" y="-507" font-family="Times,serif" font-size="14.00">flick</text>
</g>
<!-- FanHi&#45;&gt;FanMed -->
<g id="edge5" class="edge">
<title>FanHi&#45;&gt;FanMed</title>
<path fill="none" stroke="black" d="M293.88,-455.07C299.34,-429.66 311.22,-377.36 317.71,-372 356.42,-340 508.93,-390.9 543,-354 548.07,-348.51 547.38,-343.24 543,-337.2 542.07,-335.92 512.37,-326.32 485.91,-317.97"/>
<polygon fill="black" stroke="black" points="486.95,-314.63 476.36,-314.96 484.85,-321.31 486.95,-314.63"/>
<text text-anchor="middle" x="370.65" y="-382.8" font-family="Times,serif" font-size="14.00">remotePressedMed</text>
</g>
<!-- FanHi&#45;&gt;FanLow -->
<g id="edge4" class="edge">
<title>FanHi&#45;&gt;FanLow</title>
<path fill="none" stroke="black" d="M265.34,-468.93C210.91,-468.66 86.44,-464.9 57,-436.8 24.6,-405.88 22.6,-377.71 41.71,-337.2 62.6,-292.9 109.91,-259.9 143.59,-240.92"/>
<polygon fill="black" stroke="black" points="145.6,-243.8 152.69,-235.93 142.24,-237.66 145.6,-243.8"/>
<text text-anchor="middle" x="95.65" y="-341.4" font-family="Times,serif" font-size="14.00">remotePressedLow</text>
</g>
<!-- FanOff -->
<g id="node7" class="node">
<title>FanOff</title>
<path fill="none" stroke="black" d="M145.45,-372.5C145.45,-372.5 182.55,-372.5 182.55,-372.5 187.38,-372.5 192.21,-377.33 192.21,-382.17 192.21,-382.17 192.21,-391.83 192.21,-391.83 192.21,-396.67 187.38,-401.5 182.55,-401.5 182.55,-401.5 145.45,-401.5 145.45,-401.5 140.62,-401.5 135.79,-396.67 135.79,-391.83 135.79,-391.83 135.79,-382.17 135.79,-382.17 135.79,-377.33 140.62,-372.5 145.45,-372.5"/>
<text text-anchor="middle" x="164" y="-382.8" font-family="Times,serif" font-size="14.00">FanOff</text>
</g>
<!-- FanHi&#45;&gt;FanOff -->
<g id="edge3" class="edge">
<title>FanHi&#45;&gt;FanOff</title>
<path fill="none" stroke="black" d="M265.12,-469.16C211.57,-469.3 91.48,-466.23 65.94,-436.8 45.8,-413.6 90.13,-400.25 125.58,-393.55"/>
<polygon fill="black" stroke="black" points="126.51,-396.94 135.75,-391.76 125.3,-390.05 126.51,-396.94"/>
<text text-anchor="middle" x="116.53" y="-424.2" font-family="Times,serif" font-size="14.00">remotePressedOff</text>
</g>
<!-- FanMed&#45;&gt;JustTurnedOffFromMed -->
<g id="edge10" class="edge">
<title>FanMed&#45;&gt;JustTurnedOffFromMed</title>
<path fill="none" stroke="black" d="M446.36,-289.49C447.54,-277.58 449.27,-260.07 450.67,-245.92"/>
<polygon fill="black" stroke="black" points="454.16,-246.2 451.66,-235.9 447.19,-245.51 454.16,-246.2"/>
<text text-anchor="middle" x="461.83" y="-258.6" font-family="Times,serif" font-size="14.00">flick</text>
</g>
<!-- FanMed&#45;&gt;FanHi -->
<g id="edge13" class="edge">
<title>FanMed&#45;&gt;FanHi</title>
<path fill="none" stroke="black" d="M476.46,-315.01C481,-316.42 485.62,-317.85 490,-319.2 516.2,-327.27 532.69,-315.17 549,-337.2 553.44,-343.2 553.72,-348.21 549,-354 523.87,-384.81 497.24,-354.84 461.37,-372 442.47,-381.04 442.57,-390.59 425,-402 393.02,-422.77 353.69,-441.67 325.93,-454.03"/>
<polygon fill="black" stroke="black" points="324.38,-450.89 316.63,-458.12 327.19,-457.3 324.38,-450.89"/>
<text text-anchor="middle" x="508.81" y="-382.8" font-family="Times,serif" font-size="14.00">remotePressedHi</text>
</g>
<!-- FanMed&#45;&gt;FanLow -->
<g id="edge12" class="edge">
<title>FanMed&#45;&gt;FanLow</title>
<path fill="none" stroke="black" d="M413.26,-292.42C408.84,-291.19 404.33,-290.06 400,-289.2 357.26,-280.68 240.55,-296 204.71,-271.2 196.06,-265.22 190.45,-255.17 186.87,-245.75"/>
<polygon fill="black" stroke="black" points="190.12,-244.44 183.73,-235.98 183.46,-246.58 190.12,-244.44"/>
<text text-anchor="middle" x="257.65" y="-258.6" font-family="Times,serif" font-size="14.00">remotePressedLow</text>
</g>
<!-- FanMed&#45;&gt;FanOff -->
<g id="edge11" class="edge">
<title>FanMed&#45;&gt;FanOff</title>
<path fill="none" stroke="black" d="M413.4,-312.78C402.83,-315.11 390.95,-317.5 380,-319.2 338.73,-325.61 228.19,-314.81 192.94,-337.2 183.56,-343.16 176.83,-353.34 172.23,-362.87"/>
<polygon fill="black" stroke="black" points="168.89,-361.78 168.19,-372.36 175.33,-364.53 168.89,-361.78"/>
<text text-anchor="middle" x="242.53" y="-341.4" font-family="Times,serif" font-size="14.00">remotePressedOff</text>
</g>
<!-- FanLow&#45;&gt;JustTurnedOffFromLow -->
<g id="edge6" class="edge">
<title>FanLow&#45;&gt;JustTurnedOffFromLow</title>
<path fill="none" stroke="black" d="M184.98,-206.81C186.48,-201.16 188.06,-194.51 189,-188.4 190.25,-180.33 190.98,-171.42 191.41,-163.46"/>
<polygon fill="black" stroke="black" points="194.91,-163.48 191.83,-153.34 187.92,-163.19 194.91,-163.48"/>
<text text-anchor="middle" x="202.83" y="-175.8" font-family="Times,serif" font-size="14.00">flick</text>
</g>
<!-- FanLow&#45;&gt;FanHi -->
<g id="edge9" class="edge">
<title>FanLow&#45;&gt;FanHi</title>
<path fill="none" stroke="black" d="M179.15,-236.04C178.48,-247.14 179.61,-262.38 189,-271.2 218.14,-298.58 331.25,-273.47 368,-289.2 371.77,-290.81 422.29,-333.48 424,-337.2 447.56,-388.43 341.43,-331.69 302,-372 292.21,-382.01 290.48,-419.53 290.48,-444.82"/>
<polygon fill="black" stroke="black" points="286.99,-445.14 290.58,-455.11 293.99,-445.07 286.99,-445.14"/>
<text text-anchor="middle" x="474.81" y="-341.4" font-family="Times,serif" font-size="14.00">remotePressedHi</text>
</g>
<!-- FanLow&#45;&gt;FanMed -->
<g id="edge8" class="edge">
<title>FanLow&#45;&gt;FanMed</title>
<path fill="none" stroke="black" d="M212.36,-225.79C240.62,-229.77 282.72,-238.03 316,-254.4 326.63,-259.63 326.19,-265.73 336.71,-271.2 362.66,-284.69 371.97,-280.86 400,-289.2 401.24,-289.57 402.49,-289.94 403.75,-290.32"/>
<polygon fill="black" stroke="black" points="402.97,-293.74 413.56,-293.31 405.01,-287.05 402.97,-293.74"/>
<text text-anchor="middle" x="389.65" y="-258.6" font-family="Times,serif" font-size="14.00">remotePressedMed</text>
</g>
<!-- FanLow&#45;&gt;FanOff -->
<g id="edge7" class="edge">
<title>FanLow&#45;&gt;FanOff</title>
<path fill="none" stroke="black" d="M171.37,-235.93C162.78,-248.9 150.83,-269.36 145.94,-289.2 142.75,-302.15 142.58,-306.3 145.94,-319.2 148.25,-328.07 152.98,-328.55 156,-337.2 158.8,-345.2 160.62,-354.29 161.82,-362.44"/>
<polygon fill="black" stroke="black" points="158.35,-362.94 163.05,-372.43 165.3,-362.08 158.35,-362.94"/>
<text text-anchor="middle" x="195.53" y="-300" font-family="Times,serif" font-size="14.00">remotePressedOff</text>
</g>
<!-- FanOff&#45;&gt;FanHi -->
<g id="edge17" class="edge">
<title>FanOff&#45;&gt;FanHi</title>
<path fill="none" stroke="black" d="M168.26,-401.87C172.29,-412.82 179.39,-427.71 190.37,-436.8 208.73,-452 234.4,-460.02 255.22,-464.22"/>
<polygon fill="black" stroke="black" points="254.83,-467.71 265.3,-466.05 256.08,-460.82 254.83,-467.71"/>
<text text-anchor="middle" x="237.81" y="-424.2" font-family="Times,serif" font-size="14.00">remotePressedHi</text>
</g>
<!-- FanOff&#45;&gt;FanMed -->
<g id="edge16" class="edge">
<title>FanOff&#45;&gt;FanMed</title>
<path fill="none" stroke="black" d="M192.47,-382.31C219.56,-378.04 260.97,-369.52 294,-354 305.36,-348.66 305.35,-342.56 316.71,-337.2 324.69,-333.43 369.4,-322.64 403.81,-314.63"/>
<polygon fill="black" stroke="black" points="404.71,-318.01 413.66,-312.34 403.13,-311.19 404.71,-318.01"/>
<text text-anchor="middle" x="369.65" y="-341.4" font-family="Times,serif" font-size="14.00">remotePressedMed</text>
</g>
<!-- FanOff&#45;&gt;FanLow -->
<g id="edge15" class="edge">
<title>FanOff&#45;&gt;FanLow</title>
<path fill="none" stroke="black" d="M162.78,-372.22C162.6,-361.33 164.24,-346.47 173,-337.2 196.25,-312.6 226.08,-345.81 247,-319.2 291.81,-262.18 183.23,-272.78 182,-271.2 176.6,-264.25 175.42,-254.92 175.92,-246.27"/>
<polygon fill="black" stroke="black" points="179.4,-246.64 177.19,-236.28 172.45,-245.75 179.4,-246.64"/>
<text text-anchor="middle" x="310.65" y="-300" font-family="Times,serif" font-size="14.00">remotePressedLow</text>
</g>
<!-- FanOff&#45;&gt;NoPower -->
<g id="edge14" class="edge">
<title>FanOff&#45;&gt;NoPower</title>
<path fill="none" stroke="black" d="M135.65,-383.18C100.78,-379.06 44.65,-370.08 32,-354 -5.32,-306.55 52.67,-135.45 91,-88.8 94.89,-84.06 99.68,-79.85 104.77,-76.16"/>
<polygon fill="black" stroke="black" points="107.06,-78.85 113.52,-70.45 103.23,-72.99 107.06,-78.85"/>
<text text-anchor="middle" x="49.83" y="-217.2" font-family="Times,serif" font-size="14.00">flick</text>
</g>
<!-- NoPower&#45;&gt;FanOff -->
<g id="edge24" class="edge">
<title>NoPower&#45;&gt;FanOff</title>
<path fill="none" stroke="black" d="M133.21,-70.7C123.94,-83.6 111.25,-103.74 106,-123.6 102.59,-136.49 105.25,-140.29 106,-153.6 110.21,-228.53 110.28,-249.87 139,-319.2 142.5,-327.66 145.41,-328.78 149,-337.2 152.47,-345.34 155.51,-354.56 157.94,-362.77"/>
<polygon fill="black" stroke="black" points="154.59,-363.79 160.66,-372.48 161.33,-361.9 154.59,-363.79"/>
<text text-anchor="middle" x="124.83" y="-217.2" font-family="Times,serif" font-size="14.00">flick</text>
</g>
<!-- initial_FanSwitch -->
<g id="node9" class="node">
<title>initial_FanSwitch</title>
<ellipse fill="black" stroke="black" cx="25" cy="-138.6" rx="9" ry="9"/>
</g>
<!-- initial_FanSwitch&#45;&gt;NoPower -->
<g id="edge1" class="edge">
<title>initial_FanSwitch&#45;&gt;NoPower</title>
<path fill="none" stroke="black" d="M26.72,-129.49C29.42,-118.71 35.67,-99.74 48,-88.8 62.28,-76.12 81.73,-68.44 99.4,-63.8"/>
<polygon fill="black" stroke="black" points="100.61,-67.11 109.54,-61.41 99,-60.3 100.61,-67.11"/>
</g>
</g>
</svg>
