<?xml version="1.0" encoding="UTF-8" standalone="no"?>
<!DOCTYPE svg PUBLIC "-//W3C//DTD SVG 1.1//EN"
 "http://www.w3.org/Graphics/SVG/1.1/DTD/svg11.dtd">
<!-- Generated by graphviz version 2.41.20190204.1309 (20190204.1309)
 -->
<!-- Title: %3 Pages: 1 -->
<svg width="355pt" height="368pt"
 viewBox="0.00 0.00 355.00 368.00" xmlns="http://www.w3.org/2000/svg" xmlns:xlink="http://www.w3.org/1999/xlink">
<g id="graph0" class="graph" transform="scale(1 1) rotate(0) translate(4 364)">
<title>%3</title>
<polygon fill="white" stroke="transparent" points="-4,4 -4,-364 351,-364 351,4 -4,4"/>
<text text-anchor="start" x="115.18" y="-9.2" font-family="Times,serif" font-weight="bold" font-size="14.00">Finite State Machine</text>
<g id="clust1" class="cluster">
<title>cluster_LightSwitch</title>
<path fill="none" stroke="black" d="M20,-32.8C20,-32.8 327,-32.8 327,-32.8 333,-32.8 339,-38.8 339,-44.8 339,-44.8 339,-340 339,-340 339,-346 333,-352 327,-352 327,-352 20,-352 20,-352 14,-352 8,-346 8,-340 8,-340 8,-44.8 8,-44.8 8,-38.8 14,-32.8 20,-32.8"/>
<text text-anchor="middle" x="173.5" y="-335.4" font-family="Times,serif" font-size="14.00">LightSwitch</text>
</g>
<!-- justTurnedOff -->
<g id="node1" class="node">
<title>justTurnedOff</title>
<path fill="none" stroke="black" d="M168.63,-289.7C168.63,-289.7 245.37,-289.7 245.37,-289.7 250.21,-289.7 255.04,-294.53 255.04,-299.37 255.04,-299.37 255.04,-309.03 255.04,-309.03 255.04,-313.87 250.21,-318.7 245.37,-318.7 245.37,-318.7 168.63,-318.7 168.63,-318.7 163.79,-318.7 158.96,-313.87 158.96,-309.03 158.96,-309.03 158.96,-299.37 158.96,-299.37 158.96,-294.53 163.79,-289.7 168.63,-289.7"/>
<text text-anchor="middle" x="207" y="-300" font-family="Times,serif" font-size="14.00">justTurnedOff</text>
</g>
<!-- LightOff -->
<g id="node2" class="node">
<title>LightOff</title>
<path fill="none" stroke="black" d="M134.79,-206.9C134.79,-206.9 181.21,-206.9 181.21,-206.9 186.05,-206.9 190.88,-211.73 190.88,-216.57 190.88,-216.57 190.88,-226.23 190.88,-226.23 190.88,-231.07 186.05,-235.9 181.21,-235.9 181.21,-235.9 134.79,-235.9 134.79,-235.9 129.95,-235.9 125.12,-231.07 125.12,-226.23 125.12,-226.23 125.12,-216.57 125.12,-216.57 125.12,-211.73 129.95,-206.9 134.79,-206.9"/>
<text text-anchor="middle" x="158" y="-217.2" font-family="Times,serif" font-size="14.00">LightOff</text>
</g>
<!-- justTurnedOff&#45;&gt;LightOff -->
<g id="edge7" class="edge">
<title>justTurnedOff&#45;&gt;LightOff</title>
<path fill="none" stroke="black" d="M173.95,-289.59C166.53,-284.9 159.6,-278.85 155.34,-271.2 151.16,-263.69 150.71,-254.49 151.68,-246.11"/>
<polygon fill="black" stroke="black" points="155.15,-246.59 153.51,-236.12 148.26,-245.33 155.15,-246.59"/>
<text text-anchor="middle" x="167.83" y="-258.6" font-family="Times,serif" font-size="14.00">flick</text>
</g>
<!-- NoPower -->
<g id="node4" class="node">
<title>NoPower</title>
<path fill="none" stroke="black" d="M140.23,-41.3C140.23,-41.3 189.77,-41.3 189.77,-41.3 194.6,-41.3 199.44,-46.13 199.44,-50.97 199.44,-50.97 199.44,-60.63 199.44,-60.63 199.44,-65.47 194.6,-70.3 189.77,-70.3 189.77,-70.3 140.23,-70.3 140.23,-70.3 135.4,-70.3 130.56,-65.47 130.56,-60.63 130.56,-60.63 130.56,-50.97 130.56,-50.97 130.56,-46.13 135.4,-41.3 140.23,-41.3"/>
<text text-anchor="middle" x="165" y="-51.6" font-family="Times,serif" font-size="14.00">NoPower</text>
</g>
<!-- justTurnedOff&#45;&gt;NoPower -->
<g id="edge8" class="edge">
<title>justTurnedOff&#45;&gt;NoPower</title>
<path fill="none" stroke="black" d="M218.89,-289.55C238.04,-265.85 272.21,-215.42 258,-171.6 245.47,-132.97 212.87,-98.21 189.81,-77.31"/>
<polygon fill="black" stroke="black" points="191.92,-74.5 182.1,-70.51 187.29,-79.75 191.92,-74.5"/>
<text text-anchor="middle" x="286.64" y="-175.8" font-family="Times,serif" font-size="14.00">[after(2)]</text>
</g>
<!-- LightOff&#45;&gt;justTurnedOff -->
<g id="edge3" class="edge">
<title>LightOff&#45;&gt;justTurnedOff</title>
<path fill="none" stroke="black" d="M170.99,-236.08C175.76,-241.52 180.97,-248 185,-254.4 190,-262.34 194.48,-271.6 198.07,-279.92"/>
<polygon fill="black" stroke="black" points="194.94,-281.51 201.98,-289.43 201.41,-278.85 194.94,-281.51"/>
<text text-anchor="middle" x="206.83" y="-258.6" font-family="Times,serif" font-size="14.00">flick</text>
</g>
<!-- LightOn -->
<g id="node3" class="node">
<title>LightOn</title>
<path fill="none" stroke="black" d="M135.95,-124.1C135.95,-124.1 180.05,-124.1 180.05,-124.1 184.89,-124.1 189.72,-128.93 189.72,-133.77 189.72,-133.77 189.72,-143.43 189.72,-143.43 189.72,-148.27 184.89,-153.1 180.05,-153.1 180.05,-153.1 135.95,-153.1 135.95,-153.1 131.11,-153.1 126.28,-148.27 126.28,-143.43 126.28,-143.43 126.28,-133.77 126.28,-133.77 126.28,-128.93 131.11,-124.1 135.95,-124.1"/>
<text text-anchor="middle" x="158" y="-134.4" font-family="Times,serif" font-size="14.00">LightOn</text>
</g>
<!-- LightOff&#45;&gt;LightOn -->
<g id="edge2" class="edge">
<title>LightOff&#45;&gt;LightOn</title>
<path fill="none" stroke="black" d="M158,-206.69C158,-194.78 158,-177.27 158,-163.12"/>
<polygon fill="black" stroke="black" points="161.5,-163.1 158,-153.1 154.5,-163.1 161.5,-163.1"/>
<text text-anchor="middle" x="207.37" y="-175.8" font-family="Times,serif" font-size="14.00">remotePressedOn</text>
</g>
<!-- LightOn&#45;&gt;LightOff -->
<g id="edge5" class="edge">
<title>LightOn&#45;&gt;LightOff</title>
<path fill="none" stroke="black" d="M126.27,-150.63C123.15,-151.65 120.02,-152.66 117,-153.6 88.76,-162.38 70.8,-148.03 52.94,-171.6 33.79,-196.87 78.08,-209.53 114.94,-215.52"/>
<polygon fill="black" stroke="black" points="114.66,-219.02 125.07,-217.04 115.7,-212.09 114.66,-219.02"/>
<text text-anchor="middle" x="103.53" y="-175.8" font-family="Times,serif" font-size="14.00">remotePressedOff</text>
</g>
<!-- LightOn&#45;&gt;NoPower -->
<g id="edge4" class="edge">
<title>LightOn&#45;&gt;NoPower</title>
<path fill="none" stroke="black" d="M148.94,-123.93C143.6,-114.15 138.57,-100.67 142.34,-88.8 143.43,-85.39 145.02,-82.03 146.88,-78.84"/>
<polygon fill="black" stroke="black" points="149.86,-80.67 152.55,-70.43 144.06,-76.76 149.86,-80.67"/>
<text text-anchor="middle" x="154.83" y="-93" font-family="Times,serif" font-size="14.00">flick</text>
</g>
<!-- NoPower&#45;&gt;LightOn -->
<g id="edge6" class="edge">
<title>NoPower&#45;&gt;LightOn</title>
<path fill="none" stroke="black" d="M167.39,-70.54C168.73,-80.36 169.79,-93.85 168,-105.6 167.58,-108.36 166.96,-111.22 166.24,-114.03"/>
<polygon fill="black" stroke="black" points="162.83,-113.21 163.32,-123.8 169.54,-115.22 162.83,-113.21"/>
<text text-anchor="middle" x="180.83" y="-93" font-family="Times,serif" font-size="14.00">flick</text>
</g>
<!-- initial_LightSwitch -->
<g id="node5" class="node">
<title>initial_LightSwitch</title>
<ellipse fill="black" stroke="black" cx="99" cy="-138.6" rx="9" ry="9"/>
</g>
<!-- initial_LightSwitch&#45;&gt;NoPower -->
<g id="edge1" class="edge">
<title>initial_LightSwitch&#45;&gt;NoPower</title>
<path fill="none" stroke="black" d="M104.04,-130.87C111.21,-121.37 124.83,-103.54 137,-88.8 139.93,-85.25 143.1,-81.52 146.22,-77.92"/>
<polygon fill="black" stroke="black" points="148.89,-80.19 152.84,-70.36 143.62,-75.58 148.89,-80.19"/>
</g>
</g>
</svg>
